<svg xmlns="http://www.w3.org/2000/svg" width="512" height="512" viewBox="0 0 512 512" role="img" aria-label="Clavel rojo">
  <rect width="512" height="512" rx="36" fill="#fff9f8"/>
  <path d="M256 292V440" stroke="#5a8a41" stroke-width="18" stroke-linecap="round"/>
  <path d="M248 350c-43-20-58-53-41-84 34 8 55 29 49 84Z" fill="#75aa5c"/>
  <path d="M264 376c43-20 58-53 41-84-34 8-55 29-49 84Z" fill="#75aa5c"/>
  <g transform="translate(256 198)">
    <path d="M-76 14c18-26 45-38 76-38s58 12 76 38c-12 16-24 24-38 26 10 11 16 22 18 36-18 24-41 38-56 38-15 0-38-14-56-38 2-14 8-25 18-36-14-2-26-10-38-26Z" fill="#c4172c"/>
    <path d="M-54 -4c16-18 34-26 54-26s38 8 54 26c-10 12-22 20-34 24 11 7 20 16 26 28-14 18-30 30-46 30s-32-12-46-30c6-12 15-21 26-28-12-4-24-12-34-24Z" fill="#dd2b42"/>
    <path d="M-28 22c10-12 18-16 28-16s18 4 28 16c-6 10-14 16-28 16s-22-6-28-16Z" fill="#f05a6c"/>
  </g>
</svg>
