<svg width="64" height="64" viewBox="0 0 64 64" fill="none" xmlns="http://www.w3.org/2000/svg" role="img" aria-label="Favicon FloristeriaLaBajo">
  <rect width="64" height="64" rx="14" fill="#FCF8F4"/>
  <circle cx="32" cy="28" r="6" fill="#E7C58F"/>
  <path d="M32 12C36 18 36 23 32 27C28 23 28 18 32 12Z" fill="#A24672"/>
  <path d="M48 28C42 32 37 32 33 28C37 24 42 24 48 28Z" fill="#A24672"/>
  <path d="M32 44C28 38 28 33 32 29C36 33 36 38 32 44Z" fill="#A24672"/>
  <path d="M16 28C22 24 27 24 31 28C27 32 22 32 16 28Z" fill="#A24672"/>
  <path d="M32 34V51" stroke="#557A46" stroke-width="3.5" stroke-linecap="round"/>
  <path d="M31 40C24 36 22 31 24 26C30 28 33 32 31 40Z" fill="#6D9D5C"/>
  <path d="M33 44C40 40 42 35 40 30C34 32 31 36 33 44Z" fill="#6D9D5C"/>
</svg>