<svg xmlns="http://www.w3.org/2000/svg" width="512" height="512" viewBox="0 0 512 512" role="img" aria-label="Girasol">
  <rect width="512" height="512" rx="36" fill="#fffaf2"/>
  <path d="M256 280V440" stroke="#5d8d43" stroke-width="18" stroke-linecap="round"/>
  <path d="M248 342c-48-19-62-56-43-90 38 8 59 31 51 90Z" fill="#76a95b"/>
  <path d="M264 370c48-19 62-56 43-90-38 8-59 31-51 90Z" fill="#76a95b"/>
  <g transform="translate(256 190)">
    <g fill="#f0b11b">
      <ellipse cx="0" cy="-92" rx="22" ry="52"/>
      <ellipse cx="65" cy="-65" rx="22" ry="52" transform="rotate(45 65 -65)"/>
      <ellipse cx="92" cy="0" rx="22" ry="52" transform="rotate(90 92 0)"/>
      <ellipse cx="65" cy="65" rx="22" ry="52" transform="rotate(135 65 65)"/>
      <ellipse cx="0" cy="92" rx="22" ry="52"/>
      <ellipse cx="-65" cy="65" rx="22" ry="52" transform="rotate(45 -65 65)"/>
      <ellipse cx="-92" cy="0" rx="22" ry="52" transform="rotate(90 -92 0)"/>
      <ellipse cx="-65" cy="-65" rx="22" ry="52" transform="rotate(135 -65 -65)"/>
      <ellipse cx="34" cy="-86" rx="18" ry="44" transform="rotate(22 34 -86)"/>
      <ellipse cx="86" cy="-34" rx="18" ry="44" transform="rotate(67 86 -34)"/>
      <ellipse cx="86" cy="34" rx="18" ry="44" transform="rotate(112 86 34)"/>
      <ellipse cx="34" cy="86" rx="18" ry="44" transform="rotate(157 34 86)"/>
      <ellipse cx="-34" cy="86" rx="18" ry="44" transform="rotate(22 -34 86)"/>
      <ellipse cx="-86" cy="34" rx="18" ry="44" transform="rotate(67 -86 34)"/>
      <ellipse cx="-86" cy="-34" rx="18" ry="44" transform="rotate(112 -86 -34)"/>
      <ellipse cx="-34" cy="-86" rx="18" ry="44" transform="rotate(157 -34 -86)"/>
    </g>
    <circle cx="0" cy="0" r="54" fill="#5a3515"/>
    <circle cx="0" cy="0" r="44" fill="#6c421a"/>
  </g>
</svg>
