<svg xmlns="http://www.w3.org/2000/svg" width="512" height="512" viewBox="0 0 512 512" role="img" aria-label="Margarita">
  <rect width="512" height="512" rx="36" fill="#fffdf9"/>
  <path d="M256 280V440" stroke="#5d8d43" stroke-width="18" stroke-linecap="round"/>
  <path d="M248 342c-45-20-58-56-40-87 35 8 56 31 48 87Z" fill="#77aa5c"/>
  <path d="M264 368c45-20 58-56 40-87-35 8-56 31-48 87Z" fill="#77aa5c"/>
  <g transform="translate(256 188)">
    <g fill="#fff" stroke="#e4e4e4" stroke-width="4">
      <ellipse cx="0" cy="-92" rx="20" ry="58"/>
      <ellipse cx="48" cy="-78" rx="20" ry="58" transform="rotate(30 48 -78)"/>
      <ellipse cx="82" cy="-46" rx="20" ry="58" transform="rotate(60 82 -46)"/>
      <ellipse cx="92" cy="0" rx="20" ry="58" transform="rotate(90 92 0)"/>
      <ellipse cx="82" cy="46" rx="20" ry="58" transform="rotate(120 82 46)"/>
      <ellipse cx="48" cy="78" rx="20" ry="58" transform="rotate(150 48 78)"/>
      <ellipse cx="0" cy="92" rx="20" ry="58"/>
      <ellipse cx="-48" cy="78" rx="20" ry="58" transform="rotate(30 -48 78)"/>
      <ellipse cx="-82" cy="46" rx="20" ry="58" transform="rotate(60 -82 46)"/>
      <ellipse cx="-92" cy="0" rx="20" ry="58" transform="rotate(90 -92 0)"/>
      <ellipse cx="-82" cy="-46" rx="20" ry="58" transform="rotate(120 -82 -46)"/>
      <ellipse cx="-48" cy="-78" rx="20" ry="58" transform="rotate(150 -48 -78)"/>
    </g>
    <circle cx="0" cy="0" r="34" fill="#f0c13b"/>
  </g>
</svg>
