<svg xmlns="http://www.w3.org/2000/svg" width="512" height="512" viewBox="0 0 512 512" role="img" aria-label="Peonía">
  <rect width="512" height="512" rx="36" fill="#fff9fb"/>
  <path d="M256 294V440" stroke="#5b8b42" stroke-width="18" stroke-linecap="round"/>
  <path d="M248 352c-46-18-61-53-42-86 36 8 59 31 50 86Z" fill="#76aa5d"/>
  <path d="M264 378c46-18 61-53 42-86-36 8-59 31-50 86Z" fill="#76aa5d"/>
  <g transform="translate(256 198)">
    <path d="M0-82c18 10 33 25 42 48-13 12-28 16-42 12-14 4-29 0-42-12 9-23 24-38 42-48Z" fill="#de5d93"/>
    <path d="M-70-18c18-27 45-41 70-41s52 14 70 41c-18 17-39 26-70 20-31 6-52-3-70-20Z" fill="#ea7faf"/>
    <path d="M-74 38c20-20 44-30 74-30s54 10 74 30c-14 24-38 40-74 40s-60-16-74-40Z" fill="#f29ac0"/>
    <path d="M-46 78c12-14 28-22 46-22s34 8 46 22c-8 20-24 32-46 32s-38-12-46-32Z" fill="#f7b7d1"/>
    <path d="M-26-62c8 22 8 46-4 70-20-4-33-17-44-34 8-18 24-30 48-36Z" fill="#d74f8a"/>
    <path d="M26-62c24 6 40 18 48 36-11 17-24 30-44 34-12-24-12-48-4-70Z" fill="#d74f8a"/>
    <circle cx="0" cy="12" r="18" fill="#ffd26e"/>
  </g>
</svg>
