<svg xmlns="http://www.w3.org/2000/svg" width="512" height="512" viewBox="0 0 512 512" role="img" aria-label="Tulipán blanco">
  <rect width="512" height="512" rx="36" fill="#fbfaf7"/>
  <path d="M256 246V440" stroke="#5f8e45" stroke-width="18" stroke-linecap="round"/>
  <path d="M250 338c-45-21-59-57-39-89 36 8 57 31 51 89Z" fill="#79aa5e"/>
  <path d="M262 364c45-21 59-57 39-89-36 8-57 31-51 89Z" fill="#79aa5e"/>
  <path d="M198 146c18-26 36-46 58-58 8 18 10 36 0 60-8 18-24 34-40 50-16-16-32-30-42-52-8-18-4-36 24-54Z" fill="#fff" stroke="#d9d9d9" stroke-width="8"/>
  <path d="M314 146c-18-26-36-46-58-58-8 18-10 36 0 60 8 18 24 34 40 50 16-16 32-30 42-52 8-18 4-36-24-54Z" fill="#fefefe" stroke="#d9d9d9" stroke-width="8"/>
  <path d="M220 110c16 18 25 40 36 86 11-46 20-68 36-86 10 22 14 48 8 72-8 31-25 50-44 68-19-18-36-37-44-68-6-24-2-50 8-72Z" fill="#ffffff" stroke="#d9d9d9" stroke-width="8"/>
</svg>
